# xmcd
#
# Track frame offsets: 
#        150
#        42470
#        68075
#        111177
#        137604
#        188713
#        220748
#
# Disc length: 3624 seconds
#
# Revision: 1
# Processed by: cddbd v1.5.2PL0 Copyright (c) Steve Scherf et al.
# Submitted via: ExactAudioCopy v0.95b4
#
DISCID=620e2607
DTITLE=Jean-Pierre Garattoni - The Spirit of Yoga
DYEAR=1900
DGENRE=New Age
TTITLE0=Leela
TTITLE1=Surya Namaskar
TTITLE2=Tapas
TTITLE3=Pranayama
TTITLE4=Antaranke
TTITLE5=Viloka
TTITLE6=Yatra
EXTD=
EXTT0=
EXTT1=
EXTT2=
EXTT3=
EXTT4=
EXTT5=
EXTT6=
PLAYORDER=
